<svg width="30" height="30" viewBox="0 0 30 30" fill="none" xmlns="http://www.w3.org/2000/svg">
<g clip-path="url(#clip0_2684_16538)">
<path d="M23.25 8.8125V11.5625H4V8.8125C4 6.915 5.485 5.375 7.32062 5.375H19.9294C21.7581 5.375 23.25 6.915 23.25 8.8125Z" fill="#4DB5FF"/>
<path d="M23.25 11.5625V19.8125C23.25 21.71 21.765 23.25 19.9294 23.25H7.32062C5.49187 23.25 4 21.71 4 19.8125V11.5625H23.25Z" fill="#E6EEFF"/>
<path d="M9.5 4.6875C9.5 4.3078 9.1922 4 8.8125 4C8.4328 4 8.125 4.3078 8.125 4.6875V8.125C8.125 8.5047 8.4328 8.8125 8.8125 8.8125C9.1922 8.8125 9.5 8.5047 9.5 8.125V4.6875Z" fill="#656870"/>
<path d="M14.3125 4.6875C14.3125 4.3078 14.0047 4 13.625 4C13.2453 4 12.9375 4.3078 12.9375 4.6875V8.125C12.9375 8.5047 13.2453 8.8125 13.625 8.8125C14.0047 8.8125 14.3125 8.5047 14.3125 8.125V4.6875Z" fill="#656870"/>
<path d="M19.125 4.6875C19.125 4.3078 18.8172 4 18.4375 4C18.0578 4 17.75 4.3078 17.75 4.6875V8.125C17.75 8.5047 18.0578 8.8125 18.4375 8.8125C18.8172 8.8125 19.125 8.5047 19.125 8.125V4.6875Z" fill="#656870"/>
<path d="M20.5 26C23.5376 26 26 23.5376 26 20.5C26 17.4624 23.5376 15 20.5 15C17.4624 15 15 17.4624 15 20.5C15 23.5376 17.4624 26 20.5 26Z" fill="#A780FF"/>
<path d="M20.4999 24.7761C22.8616 24.7761 24.7761 22.8616 24.7761 20.4999C24.7761 18.1382 22.8616 16.2236 20.4999 16.2236C18.1382 16.2236 16.2236 18.1382 16.2236 20.4999C16.2236 22.8616 18.1382 24.7761 20.4999 24.7761Z" fill="#E6EEFF"/>
<path d="M23.1126 20.4933C23.1126 20.7408 22.9063 20.9539 22.652 20.9539H20.5138C20.2663 20.9539 20.0532 20.7477 20.0532 20.4933V17.8327C20.0532 17.5852 20.2595 17.3721 20.5138 17.3721C20.7682 17.3721 20.9745 17.5783 20.9745 17.8327V20.0327H22.652C22.8995 20.0327 23.1126 20.2389 23.1126 20.4933Z" fill="#656870"/>
</g>
<defs>
<clipPath id="clip0_2684_16538">
<rect width="22" height="22" fill="white" transform="translate(4 4)"/>
</clipPath>
</defs>
</svg>
