<svg width="204" height="170" viewBox="0 0 204 170" fill="none" xmlns="http://www.w3.org/2000/svg">
<g clip-path="url(#clip0_4541_38710)">
<path d="M188.814 0H15.1857C6.79887 0 0 6.74345 0 15.0619V154.938C0 163.257 6.79887 170 15.1857 170H188.814C197.201 170 204 163.257 204 154.938V15.0619C204 6.74345 197.201 0 188.814 0Z" fill="white"/>
<path d="M204 15.0619V44.1061H0V15.0619C0 6.74817 6.80363 0 15.1857 0H188.814C197.196 0 204 6.74817 204 15.0619Z" fill="#EEEEEE"/>
<path d="M21.0094 19.9746C21.0094 22.188 19.1044 23.7536 16.5462 23.7536C13.988 23.7536 12.083 22.188 12.083 19.9746C12.083 17.7612 13.988 16.1956 16.5462 16.1956C19.1044 16.1956 21.0094 17.7612 21.0094 19.9746ZM14.0969 19.9746C14.0969 21.2702 15.131 22.08 16.5462 22.08C17.9613 22.08 18.9955 21.2702 18.9955 19.9746C18.9955 18.6789 17.9613 17.9231 16.5462 17.9231C15.131 17.9231 14.0969 18.7329 14.0969 19.9746ZM25.7991 29.1521H16.7095V30.5017H26.289V32.1213H14.6412V27.6405H23.6764V26.3989H14.5867V24.7793H25.7447V29.1521H25.7991ZM25.7991 24.0775H23.7308V15.6558H25.7991V24.0775Z" fill="#222222"/>
<path d="M50.2381 21.3244L50.3469 22.6201C48.8229 22.836 47.2445 22.944 45.6661 23.052V25.4813H43.5977V23.1599C42.1282 23.1599 40.7674 23.1599 39.5156 23.1599L39.2979 21.7023C42.5636 21.7023 46.5913 21.7023 50.2381 21.3244ZM48.9862 18.4632C48.9862 20.0288 47.2989 20.9465 44.7952 20.9465C42.2914 20.9465 40.5497 20.0288 40.5497 18.4632C40.5497 16.8976 42.237 15.9799 44.7952 15.9799C47.3533 15.9799 48.9862 16.9516 48.9862 18.4632ZM53.4494 29.6922H43.8699V30.7719H53.8848V32.2295H41.856V28.3425H51.3811V27.3708H41.7472V25.9672H53.395V29.6922H53.4494ZM42.5092 18.4632C42.5092 19.165 43.38 19.5969 44.7952 19.5969C46.2103 19.5969 47.0812 19.165 47.0812 18.4632C47.0812 17.7614 46.2103 17.3295 44.7952 17.3295C43.38 17.3295 42.5092 17.7614 42.5092 18.4632ZM53.4494 25.4273H51.3811V24.7255H48.2242V23.4839H51.3811V15.71H53.4494V25.4273Z" fill="#222222"/>
<path d="M70.9754 27.6947V26.1291C69.1249 25.8052 67.9274 24.6715 67.9818 23.106C67.9818 21.2165 69.6147 19.9748 72.064 19.9748C74.5133 19.9748 76.1462 21.2165 76.1462 23.106C76.1462 24.6715 74.8943 25.8052 73.0982 26.1291V27.6407C74.5133 27.5867 75.9285 27.4788 77.2348 27.2628L77.3436 28.7744C73.7513 29.4223 69.8324 29.4762 67.0021 29.4762L66.73 27.8027C67.9818 27.8027 69.5059 27.8027 71.0299 27.8027L70.9754 27.6947ZM77.0171 19.219H67.0021V17.5994H70.9754V15.7639H73.0437V17.5994H77.0171V19.219ZM69.9413 23.106C69.9413 24.0777 70.7577 24.6176 72.064 24.6176C73.3159 24.6176 74.1868 24.0777 74.1868 23.106C74.1868 22.1342 73.3703 21.5404 72.064 21.5404C70.7577 21.5404 69.9413 22.1342 69.9413 23.106ZM80.2284 22.5661H82.5688V24.2936H80.2284V32.3914H78.1601V15.71H80.2284V22.5661Z" fill="#222222"/>
<path d="M109.784 26.561H103.089V32.3914H101.02V26.561H94.4346V24.8874H109.784V26.561ZM109.185 21.7563L108.368 23.4298C105.538 22.998 103.252 21.5943 102.163 19.7049C101.075 21.5943 98.7889 22.998 95.9586 23.4298L95.1421 21.7563C98.68 21.2704 101.075 19.165 101.075 17.0596V16.1958H103.252V17.0596C103.252 19.165 105.593 21.2704 109.185 21.7563Z" fill="#222222"/>
<path d="M135.419 22.1339H130.738V23.8614H137.379V25.5349H122.03V23.8614H128.616V22.1339H123.935V16.3574H135.365V22.1339H135.419ZM135.474 32.3371H133.405V28.5581H123.717V26.9386H135.474V32.3371ZM125.949 20.5143H133.351V17.923H125.949V20.5143Z" fill="#222222"/>
<path d="M163.069 17.7612C163.069 19.0568 163.069 20.5145 162.634 22.5119H164.92V24.1855H149.571V22.5119H160.565C160.946 20.7304 161.001 19.3268 161.001 18.1391H151.476V16.5195H163.069V17.8152V17.7612ZM163.069 32.1213H151.421V26.0749H163.069V32.1213ZM153.435 30.5017H161.001V27.7485H153.435V30.5017Z" fill="#222222"/>
<path d="M190.828 25.6971H185.875V28.7203H192.515V30.3398H177.167V28.7203H183.807V25.6971H179.072V16.8975H190.719V18.571H181.194V20.4605H190.338V22.0801H181.194V24.0775H190.883V25.6971H190.828Z" fill="#222222"/>
<path d="M24.0574 56.3608H17.1994C14.9448 56.3608 13.1172 58.1736 13.1172 60.4097V67.2119C13.1172 69.4481 14.9448 71.2608 17.1994 71.2608H24.0574C26.3119 71.2608 28.1396 69.4481 28.1396 67.2119V60.4097C28.1396 58.1736 26.3119 56.3608 24.0574 56.3608Z" fill="#FA8126"/>
<path d="M51.3265 56.3608H44.4684C42.2139 56.3608 40.3862 58.1736 40.3862 60.4097V67.2119C40.3862 69.4481 42.2139 71.2608 44.4684 71.2608H51.3265C53.581 71.2608 55.4086 69.4481 55.4086 67.2119V60.4097C55.4086 58.1736 53.581 56.3608 51.3265 56.3608Z" fill="#EEEEEE"/>
<path d="M78.5413 56.3608H71.6833C69.4287 56.3608 67.6011 58.1736 67.6011 60.4097V67.2119C67.6011 69.4481 69.4287 71.2608 71.6833 71.2608H78.5413C80.7958 71.2608 82.6235 69.4481 82.6235 67.2119V60.4097C82.6235 58.1736 80.7958 56.3608 78.5413 56.3608Z" fill="#EEEEEE"/>
<path d="M105.81 56.3608H98.9518C96.6973 56.3608 94.8696 58.1736 94.8696 60.4097V67.2119C94.8696 69.4481 96.6973 71.2608 98.9518 71.2608H105.81C108.064 71.2608 109.892 69.4481 109.892 67.2119V60.4097C109.892 58.1736 108.064 56.3608 105.81 56.3608Z" fill="#EEEEEE"/>
<path d="M133.025 56.3608H126.167C123.912 56.3608 122.084 58.1736 122.084 60.4097V67.2119C122.084 69.4481 123.912 71.2608 126.167 71.2608H133.025C135.279 71.2608 137.107 69.4481 137.107 67.2119V60.4097C137.107 58.1736 135.279 56.3608 133.025 56.3608Z" fill="#EEEEEE"/>
<path d="M160.294 56.3608H153.436C151.181 56.3608 149.354 58.1736 149.354 60.4097V67.2119C149.354 69.4481 151.181 71.2608 153.436 71.2608H160.294C162.548 71.2608 164.376 69.4481 164.376 67.2119V60.4097C164.376 58.1736 162.548 56.3608 160.294 56.3608Z" fill="#EEEEEE"/>
<path d="M187.562 56.3608H180.704C178.45 56.3608 176.622 58.1736 176.622 60.4097V67.2119C176.622 69.4481 178.45 71.2608 180.704 71.2608H187.562C189.817 71.2608 191.644 69.4481 191.644 67.2119V60.4097C191.644 58.1736 189.817 56.3608 187.562 56.3608Z" fill="#EEEEEE"/>
<path d="M24.0574 84.1094H17.1994C14.9448 84.1094 13.1172 85.9221 13.1172 88.1583V94.9604C13.1172 97.1966 14.9448 99.0093 17.1994 99.0093H24.0574C26.3119 99.0093 28.1396 97.1966 28.1396 94.9604V88.1583C28.1396 85.9221 26.3119 84.1094 24.0574 84.1094Z" fill="#FA8126"/>
<path d="M51.3265 84.1094H44.4684C42.2139 84.1094 40.3862 85.9221 40.3862 88.1583V94.9604C40.3862 97.1966 42.2139 99.0093 44.4684 99.0093H51.3265C53.581 99.0093 55.4086 97.1966 55.4086 94.9604V88.1583C55.4086 85.9221 53.581 84.1094 51.3265 84.1094Z" fill="#EEEEEE"/>
<path d="M78.5413 84.1094H71.6833C69.4287 84.1094 67.6011 85.9221 67.6011 88.1583V94.9604C67.6011 97.1966 69.4287 99.0093 71.6833 99.0093H78.5413C80.7958 99.0093 82.6235 97.1966 82.6235 94.9604V88.1583C82.6235 85.9221 80.7958 84.1094 78.5413 84.1094Z" fill="#EEEEEE"/>
<path d="M105.81 84.1094H98.9518C96.6973 84.1094 94.8696 85.9221 94.8696 88.1583V94.9604C94.8696 97.1966 96.6973 99.0093 98.9518 99.0093H105.81C108.064 99.0093 109.892 97.1966 109.892 94.9604V88.1583C109.892 85.9221 108.064 84.1094 105.81 84.1094Z" fill="#EEEEEE"/>
<path d="M133.025 84.1094H126.167C123.912 84.1094 122.084 85.9221 122.084 88.1583V94.9604C122.084 97.1966 123.912 99.0093 126.167 99.0093H133.025C135.279 99.0093 137.107 97.1966 137.107 94.9604V88.1583C137.107 85.9221 135.279 84.1094 133.025 84.1094Z" fill="#EEEEEE"/>
<path d="M160.294 84.1094H153.436C151.181 84.1094 149.354 85.9221 149.354 88.1583V94.9604C149.354 97.1966 151.181 99.0093 153.436 99.0093H160.294C162.548 99.0093 164.376 97.1966 164.376 94.9604V88.1583C164.376 85.9221 162.548 84.1094 160.294 84.1094Z" fill="#EEEEEE"/>
<path d="M187.562 84.1094H180.704C178.45 84.1094 176.622 85.9221 176.622 88.1583V94.9604C176.622 97.1966 178.45 99.0093 180.704 99.0093H187.562C189.817 99.0093 191.644 97.1966 191.644 94.9604V88.1583C191.644 85.9221 189.817 84.1094 187.562 84.1094Z" fill="#EEEEEE"/>
<path d="M24.0574 111.858H17.1994C14.9448 111.858 13.1172 113.671 13.1172 115.907V122.709C13.1172 124.945 14.9448 126.758 17.1994 126.758H24.0574C26.3119 126.758 28.1396 124.945 28.1396 122.709V115.907C28.1396 113.671 26.3119 111.858 24.0574 111.858Z" fill="#FA8126"/>
<path d="M51.3265 111.858H44.4684C42.2139 111.858 40.3862 113.671 40.3862 115.907V122.709C40.3862 124.945 42.2139 126.758 44.4684 126.758H51.3265C53.581 126.758 55.4086 124.945 55.4086 122.709V115.907C55.4086 113.671 53.581 111.858 51.3265 111.858Z" fill="#EEEEEE"/>
<path d="M78.5413 111.858H71.6833C69.4287 111.858 67.6011 113.671 67.6011 115.907V122.709C67.6011 124.945 69.4287 126.758 71.6833 126.758H78.5413C80.7958 126.758 82.6235 124.945 82.6235 122.709V115.907C82.6235 113.671 80.7958 111.858 78.5413 111.858Z" fill="#EEEEEE"/>
<path d="M105.81 111.858H98.9518C96.6973 111.858 94.8696 113.671 94.8696 115.907V122.709C94.8696 124.945 96.6973 126.758 98.9518 126.758H105.81C108.064 126.758 109.892 124.945 109.892 122.709V115.907C109.892 113.671 108.064 111.858 105.81 111.858Z" fill="#EEEEEE"/>
<path d="M133.025 111.858H126.167C123.912 111.858 122.084 113.671 122.084 115.907V122.709C122.084 124.945 123.912 126.758 126.167 126.758H133.025C135.279 126.758 137.107 124.945 137.107 122.709V115.907C137.107 113.671 135.279 111.858 133.025 111.858Z" fill="#EEEEEE"/>
<path d="M160.294 111.858H153.436C151.181 111.858 149.354 113.671 149.354 115.907V122.709C149.354 124.945 151.181 126.758 153.436 126.758H160.294C162.548 126.758 164.376 124.945 164.376 122.709V115.907C164.376 113.671 162.548 111.858 160.294 111.858Z" fill="#EEEEEE"/>
<path d="M187.562 111.858H180.704C178.45 111.858 176.622 113.671 176.622 115.907V122.709C176.622 124.945 178.45 126.758 180.704 126.758H187.562C189.817 126.758 191.644 124.945 191.644 122.709V115.907C191.644 113.671 189.817 111.858 187.562 111.858Z" fill="#EEEEEE"/>
<path d="M24.0574 139.606H17.1994C14.9448 139.606 13.1172 141.419 13.1172 143.655V150.458C13.1172 152.694 14.9448 154.506 17.1994 154.506H24.0574C26.3119 154.506 28.1396 152.694 28.1396 150.458V143.655C28.1396 141.419 26.3119 139.606 24.0574 139.606Z" fill="#FA8126"/>
<path d="M51.3265 139.606H44.4684C42.2139 139.606 40.3862 141.419 40.3862 143.655V150.458C40.3862 152.694 42.2139 154.506 44.4684 154.506H51.3265C53.581 154.506 55.4086 152.694 55.4086 150.458V143.655C55.4086 141.419 53.581 139.606 51.3265 139.606Z" fill="#EEEEEE"/>
<path d="M78.5413 139.606H71.6833C69.4287 139.606 67.6011 141.419 67.6011 143.655V150.458C67.6011 152.694 69.4287 154.506 71.6833 154.506H78.5413C80.7958 154.506 82.6235 152.694 82.6235 150.458V143.655C82.6235 141.419 80.7958 139.606 78.5413 139.606Z" fill="#EEEEEE"/>
<path d="M105.81 139.606H98.9518C96.6973 139.606 94.8696 141.419 94.8696 143.655V150.458C94.8696 152.694 96.6973 154.506 98.9518 154.506H105.81C108.064 154.506 109.892 152.694 109.892 150.458V143.655C109.892 141.419 108.064 139.606 105.81 139.606Z" fill="#EEEEEE"/>
<path d="M133.025 139.606H126.167C123.912 139.606 122.084 141.419 122.084 143.655V150.458C122.084 152.694 123.912 154.506 126.167 154.506H133.025C135.279 154.506 137.107 152.694 137.107 150.458V143.655C137.107 141.419 135.279 139.606 133.025 139.606Z" fill="#EEEEEE"/>
<path d="M160.294 139.606H153.436C151.181 139.606 149.354 141.419 149.354 143.655V150.458C149.354 152.694 151.181 154.506 153.436 154.506H160.294C162.548 154.506 164.376 152.694 164.376 150.458V143.655C164.376 141.419 162.548 139.606 160.294 139.606Z" fill="#EEEEEE"/>
<path d="M187.562 139.606H180.704C178.45 139.606 176.622 141.419 176.622 143.655V150.458C176.622 152.694 178.45 154.506 180.704 154.506H187.562C189.817 154.506 191.644 152.694 191.644 150.458V143.655C191.644 141.419 189.817 139.606 187.562 139.606Z" fill="#EEEEEE"/>
</g>
<defs>
<clipPath id="clip0_4541_38710">
<rect width="204" height="170" fill="white"/>
</clipPath>
</defs>
</svg>
