<svg width="204" height="170" viewBox="0 0 204 170" fill="none" xmlns="http://www.w3.org/2000/svg">
<g clip-path="url(#clip0_872_487)">
<path d="M188.814 0H15.1857C6.79887 0 0 6.74345 0 15.0619V154.938C0 163.257 6.79887 170 15.1857 170H188.814C197.201 170 204 163.257 204 154.938V15.0619C204 6.74345 197.201 0 188.814 0Z" fill="white"/>
<path d="M204 15.0619V44.1061H0V15.0619C0 6.74817 6.80363 0 15.1857 0H188.814C197.196 0 204 6.74817 204 15.0619Z" fill="#EDEDED"/>
<path d="M21.0096 19.9746C21.0096 22.188 19.1046 23.7536 16.5464 23.7536C13.9883 23.7536 12.0833 22.188 12.0833 19.9746C12.0833 17.7612 13.9883 16.1956 16.5464 16.1956C19.1046 16.1956 21.0096 17.7612 21.0096 19.9746ZM14.0971 19.9746C14.0971 21.2702 15.1313 22.08 16.5464 22.08C17.9616 22.08 18.9957 21.2702 18.9957 19.9746C18.9957 18.6789 17.9616 17.9231 16.5464 17.9231C15.1313 17.9231 14.0971 18.7329 14.0971 19.9746ZM25.7994 29.1521H16.7097V30.5017H26.2892V32.1213H14.6414V27.6405H23.6766V26.3989H14.587V24.7793H25.7449V29.1521H25.7994ZM25.7994 24.0775H23.7311V15.6558H25.7994V24.0775Z" fill="#222222"/>
<path d="M50.238 21.3242L50.3469 22.6198C48.8228 22.8358 47.2444 22.9438 45.666 23.0517V25.4811H43.5977V23.1597C42.1281 23.1597 40.7673 23.1597 39.5155 23.1597L39.2978 21.7021C42.5635 21.7021 46.5912 21.7021 50.238 21.3242ZM48.9861 18.463C48.9861 20.0285 47.2988 20.9463 44.7951 20.9463C42.2914 20.9463 40.5496 20.0285 40.5496 18.463C40.5496 16.8974 42.2369 15.9796 44.7951 15.9796C47.3533 15.9796 48.9861 16.9514 48.9861 18.463ZM53.4493 29.6919H43.8698V30.7716H53.8847V32.2292H41.8559V28.3423H51.381V27.3706H41.7471V25.9669H53.3949V29.6919H53.4493ZM42.5091 18.463C42.5091 19.1648 43.3799 19.5967 44.7951 19.5967C46.2102 19.5967 47.0811 19.1648 47.0811 18.463C47.0811 17.7612 46.2102 17.3293 44.7951 17.3293C43.3799 17.3293 42.5091 17.7612 42.5091 18.463ZM53.4493 25.4271H51.381V24.7253H48.2241V23.4836H51.381V15.7097H53.4493V25.4271Z" fill="#222222"/>
<path d="M70.9754 27.6945V26.1289C69.1249 25.805 67.9274 24.6713 67.9818 23.1057C67.9818 21.2162 69.6147 19.9746 72.064 19.9746C74.5133 19.9746 76.1462 21.2162 76.1462 23.1057C76.1462 24.6713 74.8943 25.805 73.0982 26.1289V27.6405C74.5133 27.5865 75.9285 27.4785 77.2348 27.2626L77.3436 28.7742C73.7513 29.422 69.8324 29.476 67.0021 29.476L66.73 27.8024C67.9818 27.8024 69.5059 27.8024 71.0299 27.8024L70.9754 27.6945ZM77.0171 19.2188H67.0021V17.5992H70.9754V15.7637H73.0437V17.5992H77.0171V19.2188ZM69.9413 23.1057C69.9413 24.0775 70.7577 24.6173 72.064 24.6173C73.3159 24.6173 74.1868 24.0775 74.1868 23.1057C74.1868 22.134 73.3703 21.5401 72.064 21.5401C70.7577 21.5401 69.9413 22.134 69.9413 23.1057ZM80.2284 22.5659H82.5688V24.2934H80.2284V32.3912H78.1601V15.7097H80.2284V22.5659Z" fill="#222222"/>
<path d="M109.783 26.5608H103.089V32.3912H101.02V26.5608H94.4344V24.8872H109.783V26.5608ZM109.185 21.7561L108.368 23.4296C105.538 22.9977 103.252 21.5941 102.163 19.7046C101.075 21.5941 98.7887 22.9977 95.9584 23.4296L95.142 21.7561C98.6798 21.2702 101.075 19.1648 101.075 17.0593V16.1956H103.252V17.0593C103.252 19.1648 105.592 21.2702 109.185 21.7561Z" fill="#222222"/>
<path d="M135.419 22.1341H130.739V23.8616H137.379V25.5352H122.03V23.8616H128.616V22.1341H123.935V16.3577H135.365V22.1341H135.419ZM135.474 32.3373H133.406V28.5584H123.717V26.9388H135.474V32.3373ZM125.949 20.5145H133.351V17.9232H125.949V20.5145Z" fill="#222222"/>
<path d="M163.069 17.7612C163.069 19.0568 163.069 20.5145 162.634 22.5119H164.92V24.1855H149.571V22.5119H160.566C160.947 20.7304 161.001 19.3268 161.001 18.1391H151.476V16.5195H163.069V17.8152V17.7612ZM163.069 32.1213H151.422V26.0749H163.069V32.1213ZM153.435 30.5017H161.001V27.7485H153.435V30.5017Z" fill="#222222"/>
<path d="M190.828 25.6971H185.875V28.7203H192.515V30.3398H177.167V28.7203H183.807V25.6971H179.072V16.8975H190.719V18.571H181.194V20.4605H190.338V22.0801H181.194V24.0775H190.883V25.6971H190.828Z" fill="#222222"/>
<path d="M24.0576 56.3608H17.1996C14.9451 56.3608 13.1174 58.1736 13.1174 60.4097V67.2119C13.1174 69.4481 14.9451 71.2608 17.1996 71.2608H24.0576C26.3122 71.2608 28.1398 69.4481 28.1398 67.2119V60.4097C28.1398 58.1736 26.3122 56.3608 24.0576 56.3608Z" fill="#FA8126"/>
<path d="M51.3266 56.3608H44.4685C42.214 56.3608 40.3864 58.1736 40.3864 60.4097V67.2119C40.3864 69.4481 42.214 71.2608 44.4685 71.2608H51.3266C53.5811 71.2608 55.4088 69.4481 55.4088 67.2119V60.4097C55.4088 58.1736 53.5811 56.3608 51.3266 56.3608Z" fill="#EDEDED"/>
<path d="M78.5411 56.3608H71.683C69.4285 56.3608 67.6009 58.1736 67.6009 60.4097V67.2119C67.6009 69.4481 69.4285 71.2608 71.683 71.2608H78.5411C80.7956 71.2608 82.6233 69.4481 82.6233 67.2119V60.4097C82.6233 58.1736 80.7956 56.3608 78.5411 56.3608Z" fill="#EDEDED"/>
<path d="M105.81 56.3608H98.952C96.6975 56.3608 94.8698 58.1736 94.8698 60.4097V67.2119C94.8698 69.4481 96.6975 71.2608 98.952 71.2608H105.81C108.065 71.2608 109.892 69.4481 109.892 67.2119V60.4097C109.892 58.1736 108.065 56.3608 105.81 56.3608Z" fill="#EDEDED"/>
<path d="M133.025 56.3608H126.166C123.912 56.3608 122.084 58.1736 122.084 60.4097V67.2119C122.084 69.4481 123.912 71.2608 126.166 71.2608H133.025C135.279 71.2608 137.107 69.4481 137.107 67.2119V60.4097C137.107 58.1736 135.279 56.3608 133.025 56.3608Z" fill="#EDEDED"/>
<path d="M160.294 56.3608H153.435C151.181 56.3608 149.353 58.1736 149.353 60.4097V67.2119C149.353 69.4481 151.181 71.2608 153.435 71.2608H160.294C162.548 71.2608 164.376 69.4481 164.376 67.2119V60.4097C164.376 58.1736 162.548 56.3608 160.294 56.3608Z" fill="#EDEDED"/>
<path d="M187.562 56.3608H180.704C178.45 56.3608 176.622 58.1736 176.622 60.4097V67.2119C176.622 69.4481 178.45 71.2608 180.704 71.2608H187.562C189.817 71.2608 191.645 69.4481 191.645 67.2119V60.4097C191.645 58.1736 189.817 56.3608 187.562 56.3608Z" fill="#FA8126"/>
<path d="M24.0576 84.1091H17.1996C14.9451 84.1091 13.1174 85.9219 13.1174 88.158V94.9602C13.1174 97.1963 14.9451 99.0091 17.1996 99.0091H24.0576C26.3122 99.0091 28.1398 97.1963 28.1398 94.9602V88.158C28.1398 85.9219 26.3122 84.1091 24.0576 84.1091Z" fill="#FA8126"/>
<path d="M51.3266 84.1091H44.4685C42.214 84.1091 40.3864 85.9219 40.3864 88.158V94.9602C40.3864 97.1963 42.214 99.0091 44.4685 99.0091H51.3266C53.5811 99.0091 55.4088 97.1963 55.4088 94.9602V88.158C55.4088 85.9219 53.5811 84.1091 51.3266 84.1091Z" fill="#EDEDED"/>
<path d="M78.5411 84.1091H71.683C69.4285 84.1091 67.6009 85.9219 67.6009 88.158V94.9602C67.6009 97.1963 69.4285 99.0091 71.683 99.0091H78.5411C80.7956 99.0091 82.6233 97.1963 82.6233 94.9602V88.158C82.6233 85.9219 80.7956 84.1091 78.5411 84.1091Z" fill="#EDEDED"/>
<path d="M105.81 84.1091H98.952C96.6975 84.1091 94.8698 85.9219 94.8698 88.158V94.9602C94.8698 97.1963 96.6975 99.0091 98.952 99.0091H105.81C108.065 99.0091 109.892 97.1963 109.892 94.9602V88.158C109.892 85.9219 108.065 84.1091 105.81 84.1091Z" fill="#EDEDED"/>
<path d="M133.025 84.1091H126.166C123.912 84.1091 122.084 85.9219 122.084 88.158V94.9602C122.084 97.1963 123.912 99.0091 126.166 99.0091H133.025C135.279 99.0091 137.107 97.1963 137.107 94.9602V88.158C137.107 85.9219 135.279 84.1091 133.025 84.1091Z" fill="#EDEDED"/>
<path d="M160.294 84.1091H153.435C151.181 84.1091 149.353 85.9219 149.353 88.158V94.9602C149.353 97.1963 151.181 99.0091 153.435 99.0091H160.294C162.548 99.0091 164.376 97.1963 164.376 94.9602V88.158C164.376 85.9219 162.548 84.1091 160.294 84.1091Z" fill="#EDEDED"/>
<path d="M187.562 84.1091H180.704C178.45 84.1091 176.622 85.9219 176.622 88.158V94.9602C176.622 97.1963 178.45 99.0091 180.704 99.0091H187.562C189.817 99.0091 191.645 97.1963 191.645 94.9602V88.158C191.645 85.9219 189.817 84.1091 187.562 84.1091Z" fill="#FA8126"/>
<path d="M24.0576 111.858H17.1996C14.9451 111.858 13.1174 113.67 13.1174 115.907V122.709C13.1174 124.945 14.9451 126.758 17.1996 126.758H24.0576C26.3122 126.758 28.1398 124.945 28.1398 122.709V115.907C28.1398 113.67 26.3122 111.858 24.0576 111.858Z" fill="#FA8126"/>
<path d="M51.3266 111.858H44.4685C42.214 111.858 40.3864 113.67 40.3864 115.907V122.709C40.3864 124.945 42.214 126.758 44.4685 126.758H51.3266C53.5811 126.758 55.4088 124.945 55.4088 122.709V115.907C55.4088 113.67 53.5811 111.858 51.3266 111.858Z" fill="#EDEDED"/>
<path d="M78.5411 111.858H71.683C69.4285 111.858 67.6009 113.67 67.6009 115.907V122.709C67.6009 124.945 69.4285 126.758 71.683 126.758H78.5411C80.7956 126.758 82.6233 124.945 82.6233 122.709V115.907C82.6233 113.67 80.7956 111.858 78.5411 111.858Z" fill="#EDEDED"/>
<path d="M105.81 111.858H98.952C96.6975 111.858 94.8698 113.67 94.8698 115.907V122.709C94.8698 124.945 96.6975 126.758 98.952 126.758H105.81C108.065 126.758 109.892 124.945 109.892 122.709V115.907C109.892 113.67 108.065 111.858 105.81 111.858Z" fill="#EDEDED"/>
<path d="M133.025 111.858H126.166C123.912 111.858 122.084 113.67 122.084 115.907V122.709C122.084 124.945 123.912 126.758 126.166 126.758H133.025C135.279 126.758 137.107 124.945 137.107 122.709V115.907C137.107 113.67 135.279 111.858 133.025 111.858Z" fill="#EDEDED"/>
<path d="M160.294 111.858H153.435C151.181 111.858 149.353 113.67 149.353 115.907V122.709C149.353 124.945 151.181 126.758 153.435 126.758H160.294C162.548 126.758 164.376 124.945 164.376 122.709V115.907C164.376 113.67 162.548 111.858 160.294 111.858Z" fill="#EDEDED"/>
<path d="M187.562 111.858H180.704C178.45 111.858 176.622 113.67 176.622 115.907V122.709C176.622 124.945 178.45 126.758 180.704 126.758H187.562C189.817 126.758 191.645 124.945 191.645 122.709V115.907C191.645 113.67 189.817 111.858 187.562 111.858Z" fill="#FA8126"/>
<path d="M24.0576 139.606H17.1996C14.9451 139.606 13.1174 141.419 13.1174 143.655V150.457C13.1174 152.693 14.9451 154.506 17.1996 154.506H24.0576C26.3122 154.506 28.1398 152.693 28.1398 150.457V143.655C28.1398 141.419 26.3122 139.606 24.0576 139.606Z" fill="#FA8126"/>
<path d="M51.3266 139.606H44.4685C42.214 139.606 40.3864 141.419 40.3864 143.655V150.457C40.3864 152.693 42.214 154.506 44.4685 154.506H51.3266C53.5811 154.506 55.4088 152.693 55.4088 150.457V143.655C55.4088 141.419 53.5811 139.606 51.3266 139.606Z" fill="#EDEDED"/>
<path d="M78.5411 139.606H71.683C69.4285 139.606 67.6009 141.419 67.6009 143.655V150.457C67.6009 152.693 69.4285 154.506 71.683 154.506H78.5411C80.7956 154.506 82.6233 152.693 82.6233 150.457V143.655C82.6233 141.419 80.7956 139.606 78.5411 139.606Z" fill="#EDEDED"/>
<path d="M105.81 139.606H98.952C96.6975 139.606 94.8698 141.419 94.8698 143.655V150.457C94.8698 152.693 96.6975 154.506 98.952 154.506H105.81C108.065 154.506 109.892 152.693 109.892 150.457V143.655C109.892 141.419 108.065 139.606 105.81 139.606Z" fill="#EDEDED"/>
<path d="M133.025 139.606H126.166C123.912 139.606 122.084 141.419 122.084 143.655V150.457C122.084 152.693 123.912 154.506 126.166 154.506H133.025C135.279 154.506 137.107 152.693 137.107 150.457V143.655C137.107 141.419 135.279 139.606 133.025 139.606Z" fill="#EDEDED"/>
<path d="M160.294 139.606H153.435C151.181 139.606 149.353 141.419 149.353 143.655V150.457C149.353 152.693 151.181 154.506 153.435 154.506H160.294C162.548 154.506 164.376 152.693 164.376 150.457V143.655C164.376 141.419 162.548 139.606 160.294 139.606Z" fill="#EDEDED"/>
<path d="M187.562 139.606H180.704C178.45 139.606 176.622 141.419 176.622 143.655V150.457C176.622 152.693 178.45 154.506 180.704 154.506H187.562C189.817 154.506 191.645 152.693 191.645 150.457V143.655C191.645 141.419 189.817 139.606 187.562 139.606Z" fill="#FA8126"/>
</g>
<defs>
<clipPath id="clip0_872_487">
<rect width="204" height="170" fill="white"/>
</clipPath>
</defs>
</svg>
