<svg width="192" height="192" viewBox="0 0 192 192" fill="none" xmlns="http://www.w3.org/2000/svg">
<g clip-path="url(#clip0_872_475)">
<path d="M96.0303 181.158C143.077 181.158 181.216 143.032 181.216 95.9999C181.216 48.9683 143.077 10.8416 96.0303 10.8416C48.9838 10.8416 10.8451 48.9683 10.8451 95.9999C10.8451 143.032 48.9838 181.158 96.0303 181.158Z" fill="#FCFBFB"/>
<path d="M13.7311 95.2812L13.7332 96.9771L20.7613 96.9685L20.7592 95.2726L13.7311 95.2812Z" fill="#434D58"/>
<path d="M96.0303 95.9999L23.6289 51.1192L28.7182 33.9179L71.3108 6.54126H113.54L151.407 24.1665L178.307 56.2069L186.244 103.45L171.279 148.028L141.652 174.738L139.713 175.768L96.0303 95.9999Z" fill="url(#paint0_linear_872_475)"/>
<path d="M96.8179 13.7488H95.1215V20.7746H96.8179V13.7488Z" fill="#434D58"/>
<path d="M96.0299 178.27L97.7263 178.252L97.6515 171.227L95.9551 171.245L96.0299 178.27Z" fill="#434D58"/>
<path d="M178.307 97.0902V95.3943H171.279V97.0902H178.307Z" fill="#434D58"/>
<path d="M119.985 145.75C120.705 147.072 122.361 147.559 123.683 146.839C125.006 146.119 125.494 144.464 124.773 143.142L99.6732 97.0815C98.9529 95.7596 97.2971 95.2718 95.9748 95.9919C94.6525 96.712 94.1645 98.3673 94.8848 99.6892L119.985 145.75Z" fill="#45515E"/>
<path d="M50.4685 64.7304C49.1859 63.9419 47.5067 64.3421 46.7179 65.6244C45.9291 66.9066 46.3295 68.5853 47.6121 69.3738L92.3056 96.85C93.5882 97.6385 95.2674 97.2383 96.0562 95.956C96.8449 94.6738 96.4446 92.9951 95.1619 92.2066L50.4685 64.7304Z" fill="#45515E"/>
<path d="M96.0303 101.754C99.2091 101.754 101.786 99.1779 101.786 96C101.786 92.8222 99.2091 90.2461 96.0303 90.2461C92.8515 90.2461 90.2745 92.8222 90.2745 96C90.2745 99.1779 92.8515 101.754 96.0303 101.754Z" fill="#45515E"/>
<path d="M95.9697 0C42.9561 0 0 43.0032 0 96C0 148.997 42.9561 192 95.9697 192C148.983 192 192 148.997 192 96C192 43.0032 149.044 0 95.9697 0ZM95.9697 181.158C48.9542 181.158 10.8451 143.001 10.8451 96C10.8451 48.9994 48.9542 10.8416 95.9697 10.8416C142.985 10.8416 181.155 48.9994 181.155 96C181.155 143.001 143.046 181.158 95.9697 181.158Z" fill="#D5D5D5"/>
</g>
<defs>
<linearGradient id="paint0_linear_872_475" x1="84.7611" y1="104.661" x2="191.064" y2="15.9569" gradientUnits="userSpaceOnUse">
<stop stop-color="#FDA850"/>
<stop offset="1" stop-color="#F9C67F"/>
</linearGradient>
<clipPath id="clip0_872_475">
<rect width="192" height="192" fill="white"/>
</clipPath>
</defs>
</svg>
