<svg width="81" height="80" viewBox="0 0 81 80" fill="none" xmlns="http://www.w3.org/2000/svg">
<g clip-path="url(#clip0_2497_11618)">
<path d="M66.1844 71.173C66.0965 71.3704 65.9888 71.5565 65.8575 71.7303C65.1074 72.7203 63.8142 73.0169 62.6702 73.3079C60.0393 73.9777 57.3375 74.3348 54.6338 74.5775C49.7518 75.0159 44.8442 75.0867 39.9432 75.064C35.0158 75.0414 30.0884 74.9261 25.1713 74.6134C22.4129 74.4377 19.6365 74.1959 16.9791 73.4354C15.8956 73.1256 13.6303 72.4142 13.5339 71.0303C13.2817 67.4207 14.4824 64.1598 16.6428 61.2832C18.8609 58.3302 21.8272 55.943 25.1855 54.407C28.4919 52.8946 32.1043 52.188 35.7082 51.8687C39.2187 51.557 42.8538 51.4502 46.3604 51.8583C49.7877 52.257 53.1677 53.2177 56.2058 54.8718C60.7005 57.3204 64.4131 61.3787 65.9151 66.272C66.3506 67.6919 66.8324 69.7153 66.1853 71.173H66.1844Z" fill="#5B87F4"/>
<path d="M39.8619 60.1869C44.7896 60.1869 48.7844 56.0391 48.7844 50.9225C48.7844 45.806 44.7896 41.6582 39.8619 41.6582C34.9342 41.6582 30.9395 45.806 30.9395 50.9225C30.9395 56.0391 34.9342 60.1869 39.8619 60.1869Z" fill="#F9B282"/>
<path d="M58.2188 30.6155C58.2188 43.1125 52.3467 53.2441 39.9696 53.2441C27.5924 53.2441 21.0657 43.1125 21.0657 30.6155C21.0657 18.1185 27.5924 10.9854 39.9696 10.9854C52.3467 10.9854 58.2188 18.1176 58.2188 30.6155Z" fill="#FFB583"/>
<path d="M61.4695 37.5743C62.2102 34.9037 61.4289 32.3556 59.7246 31.8829C58.0202 31.4103 56.0382 33.1921 55.2976 35.8627C54.5569 38.5333 55.3382 41.0814 57.0425 41.5541C58.7469 42.0267 60.7289 40.2449 61.4695 37.5743Z" fill="#FFB583"/>
<path d="M22.6074 41.5507C24.3117 41.078 25.093 38.5299 24.3523 35.8593C23.6117 33.1887 21.6297 31.4069 19.9253 31.8795C18.221 32.3522 17.4398 34.9003 18.1804 37.5709C18.921 40.2415 20.9031 42.0233 22.6074 41.5507Z" fill="#FFB583"/>
<path d="M47.324 37.2944C48.2986 37.2944 49.0886 36.3 49.0886 35.0735C49.0886 33.8469 48.2986 32.8525 47.324 32.8525C46.3494 32.8525 45.5593 33.8469 45.5593 35.0735C45.5593 36.3 46.3494 37.2944 47.324 37.2944Z" fill="#884826"/>
<path d="M32.4407 37.2944C33.4153 37.2944 34.2053 36.3 34.2053 35.0735C34.2053 33.8469 33.4153 32.8525 32.4407 32.8525C31.4661 32.8525 30.676 33.8469 30.676 35.0735C30.676 36.3 31.4661 37.2944 32.4407 37.2944Z" fill="#884826"/>
<path d="M39.863 46.405C37.4352 46.405 35.2011 45.415 34.0023 43.7977C33.6698 43.3499 33.785 42.7321 34.2592 42.4185C34.7325 42.1048 35.3862 42.2135 35.7187 42.6613C36.5378 43.7656 38.2136 44.4542 39.9925 44.4231C41.6881 44.3909 43.227 43.7155 44.0073 42.6622C44.3389 42.2144 44.9926 42.1048 45.4668 42.4185C45.9411 42.7321 46.0563 43.349 45.7247 43.7977C44.5685 45.3602 42.3881 46.3587 40.0359 46.404C39.9783 46.405 39.9216 46.4059 39.8649 46.4059L39.863 46.405Z" fill="#884826"/>
<path opacity="0.5" d="M40.3949 5C40.273 5.02454 40.1408 5.05002 40 5.07739C40.1455 5.04813 40.2768 5.02265 40.3949 5Z" fill="#FF85E2"/>
<path d="M36.77 8.28692C40.1274 7.86088 45.4129 7.85332 49.2719 10.9858C49.2719 10.9858 57.6577 12.0344 59.1692 21.1032C59.9599 25.8483 59.7077 29.4522 59.2864 31.8101C57.6228 30.8588 56.5043 33.3905 56.5043 33.3905H55.6097C55.3178 33.3414 54.7321 28.124 54.7321 28.124C50.5878 25.2475 47.955 19.689 47.955 19.689H46.4435C41.1288 27.9785 25.0882 27.7338 25.0882 27.7338C25.0391 28.4168 23.9178 33.3905 23.9178 33.3905H22.7964L21.626 31.6835H20.2127L19.8405 31.2527C19.4589 27.8897 18.4915 12.0694 33.527 8.92268C33.5289 8.92268 33.5317 8.92268 33.5336 8.92079C33.6451 8.88867 34.8977 8.52781 36.736 8.29164L36.77 8.28692Z" fill="#884826"/>
</g>
<defs>
<clipPath id="clip0_2497_11618">
<rect width="53" height="70.0678" fill="white" transform="translate(13.5 5)"/>
</clipPath>
</defs>
</svg>
