<svg width="81" height="80" viewBox="0 0 81 80" fill="none" xmlns="http://www.w3.org/2000/svg">
<g clip-path="url(#clip0_2497_15114)">
<path d="M71.389 25.8235L41.7498 7.35294C40.9761 6.88235 40.004 6.88235 39.2303 7.35294L9.59113 25.8235C8.91662 26.2549 8.5 26.9804 8.5 27.7647C8.5 29.0588 9.55146 30.098 10.8608 30.098H13.8168V68.8627C13.8168 70.5882 15.2254 71.9804 16.9712 71.9804H34.7071C34.7071 71.9804 34.6872 71.8627 34.6872 71.8039V60.0196C34.6872 59.0784 35.4609 58.3137 36.3934 58.3137H44.6066C45.5589 58.3137 46.3326 59.0784 46.3326 60.0196V71.8039C46.3326 71.8039 46.3326 71.9412 46.3128 71.9804H64.0288C65.7746 71.9804 67.1832 70.5882 67.1832 68.8627V30.1176H70.159C71.4485 30.1176 72.5198 29.0784 72.5198 27.7843C72.5198 27 72.0834 26.2549 71.4089 25.8431L71.389 25.8235ZM31.0567 50.3725C31.0567 51.1765 30.402 51.8431 29.5688 51.8431H25.7399C24.9067 51.8431 24.252 51.1765 24.252 50.3725V46.5686C24.252 45.7647 24.9067 45.098 25.7399 45.098H29.5688C30.402 45.098 31.0567 45.7647 31.0567 46.5686V50.3725ZM43.9321 50.3725C43.9321 51.1765 43.2576 51.8431 42.4442 51.8431H38.5955C37.7821 51.8431 37.1076 51.1765 37.1076 50.3725V46.5686C37.1076 45.7647 37.7821 45.098 38.5955 45.098H42.4442C43.2576 45.098 43.9321 45.7647 43.9321 46.5686V50.3725ZM56.8273 50.3725C56.8273 51.1765 56.1528 51.8431 55.3394 51.8431H51.4907C50.6773 51.8431 50.0028 51.1765 50.0028 50.3725V46.5686C50.0028 45.7647 50.6773 45.098 51.4907 45.098H55.3394C56.1528 45.098 56.8273 45.7647 56.8273 46.5686V50.3725Z" fill="#E8D0B8"/>
<path d="M48.6736 31.4904C47.5428 33.3923 45.9953 34.9218 44.3487 36.3335C43.1981 37.3139 41.9482 38.1767 40.5992 38.8825L40.5 38.9218C40.5 38.9218 40.4206 38.8825 40.4008 38.8825C39.0518 38.1767 37.8218 37.3139 36.6513 36.3335C34.9848 34.9218 33.4572 33.3727 32.3264 31.4904C31.2948 29.7649 30.7591 27.4904 31.513 25.5296C31.8701 24.5884 32.505 23.7061 33.3382 23.1571C34.4095 22.4512 35.7982 22.2943 37.0282 22.51C37.7226 22.6276 38.3971 22.961 38.9724 23.3727C39.5477 23.8041 40.0437 24.3727 40.5 24.9414C40.9563 24.3727 41.4324 23.8041 42.0276 23.3727C42.6029 22.961 43.2576 22.6276 43.9718 22.51C45.2018 22.2943 46.5905 22.4316 47.6618 23.1571C48.495 23.7061 49.1299 24.608 49.487 25.5296C50.2409 27.4708 49.7052 29.7649 48.6736 31.4904Z" fill="#FF5C45"/>
</g>
<defs>
<clipPath id="clip0_2497_15114">
<rect width="64" height="65" fill="white" transform="translate(8.5 7)"/>
</clipPath>
</defs>
</svg>
