<svg width="123" height="100" viewBox="0 0 123 100" fill="none" xmlns="http://www.w3.org/2000/svg">
<g clip-path="url(#clip0_2526_7159)">
<path d="M49.7938 35.0606C53.7886 35.0606 57.0269 31.8433 57.0269 27.8746C57.0269 23.9058 53.7886 20.6885 49.7938 20.6885C45.7991 20.6885 42.5608 23.9058 42.5608 27.8746C42.5608 31.8433 45.7991 35.0606 49.7938 35.0606Z" fill="#FF9435"/>
<path d="M49.7939 100C56.4167 100 61.7855 94.6664 61.7855 88.0866C61.7855 81.5068 56.4167 76.1729 49.7939 76.1729C43.1711 76.1729 37.8022 81.5068 37.8022 88.0866C37.8022 94.6664 43.1711 100 49.7939 100Z" fill="#FF9435"/>
<path d="M13.1719 56.6944C12.2963 56.6944 11.4968 56.0515 11.3065 55.1816C11.2304 54.6899 9.09852 43.4569 16.5219 36.3843C17.2833 35.6657 18.5015 35.7035 19.2248 36.4599C19.9481 37.2164 19.91 38.4267 19.1487 39.1453C13.2099 44.7807 15.0372 54.3873 15.0372 54.463C15.2276 55.4841 14.5804 56.4675 13.5526 56.6944C13.4384 56.6944 13.3241 56.6944 13.1719 56.6944Z" fill="#FFB157"/>
<path d="M2.55057 61.3083C1.67499 61.3083 0.875543 60.7032 0.6852 59.7955C0.494856 58.9256 -3.54043 38.5398 10.6592 26.853C11.4586 26.1722 12.6768 26.2857 13.324 27.1177C14.0092 27.912 13.895 29.1223 13.0575 29.7652C0.647131 39.977 4.37786 58.8499 4.41593 59.0391C4.64435 60.0602 3.95911 61.0436 2.93125 61.2705C2.81705 61.2705 2.66477 61.3083 2.55057 61.3083Z" fill="#FFB157"/>
<path d="M119.079 0H59.1208C56.9552 0 55.1997 1.74412 55.1997 3.89561V85.2874C55.1997 87.4389 56.9552 89.1831 59.1208 89.1831H119.079C121.245 89.1831 123 87.4389 123 85.2874V3.89561C123 1.74412 121.245 0 119.079 0Z" fill="#E5E4E8"/>
<path d="M109.866 17.1327H69.3231C68.2572 17.1327 67.4197 16.3007 67.4197 15.2417C67.4197 14.1827 68.2572 13.3506 69.3231 13.3506H109.866C110.932 13.3506 111.77 14.1827 111.77 15.2417C111.77 16.3007 110.932 17.1327 109.866 17.1327Z" fill="white"/>
<path d="M109.866 31.4296H78.2311C77.1651 31.4296 76.3276 30.5975 76.3276 29.5385C76.3276 28.4795 77.1651 27.6475 78.2311 27.6475H109.866C110.932 27.6475 111.77 28.4795 111.77 29.5385C111.77 30.5975 110.932 31.4296 109.866 31.4296Z" fill="white"/>
<path d="M98.1412 78.1769C106.404 78.1769 113.102 71.5221 113.102 63.3131C113.102 55.104 106.404 48.4492 98.1412 48.4492C89.8784 48.4492 83.1802 55.104 83.1802 63.3131C83.1802 71.5221 89.8784 78.1769 98.1412 78.1769Z" fill="#6CB9FF"/>
<path d="M95.6285 69.5538C95.1336 69.5538 94.6387 69.3647 94.2961 68.9864L89.9182 64.637C89.1568 63.8805 89.1568 62.7081 89.9182 61.9516C90.6796 61.1952 91.8597 61.1952 92.6211 61.9516L95.6285 64.9395L102.214 58.3964C102.976 57.64 104.156 57.64 104.917 58.3964C105.679 59.1529 105.679 60.3253 104.917 61.0817L96.9609 68.9864C96.6183 69.3268 96.1234 69.5538 95.6285 69.5538Z" fill="white"/>
<path d="M85.8068 84.4933C85.8068 87.1029 83.751 89.1831 81.1624 89.1831H18.4251C15.8365 89.1831 13.7808 87.1029 13.7808 84.4933C13.7808 83.0939 14.3899 81.8457 15.3796 80.9759H15.4177C15.9507 80.3707 21.4326 74.811 21.7752 73.109C22.1559 71.2936 23.1837 55.1816 23.1837 55.1816V54.1982C23.1837 39.41 35.0612 27.4206 49.7938 27.3828C64.5263 27.4206 76.4038 39.41 76.4038 54.1982V55.1816C76.4038 55.1816 77.4316 71.2936 77.8123 73.109C78.1549 74.811 83.6368 80.3329 84.1698 80.9759H84.2079C85.1977 81.8457 85.8068 83.0939 85.8068 84.4933Z" fill="#FFB157"/>
</g>
<defs>
<clipPath id="clip0_2526_7159">
<rect width="123" height="100" fill="white"/>
</clipPath>
</defs>
</svg>
