<svg width="82" height="82" viewBox="0 0 82 82" fill="none" xmlns="http://www.w3.org/2000/svg">
<g clip-path="url(#clip0_1564_11583)">
<path d="M55.4515 39.2929C52.3065 36.1479 48.4295 34.2047 44.3783 33.4536L44.3125 22.688L45.5758 21.4247L48.3554 24.2043C49.7387 25.5876 51.9437 25.6011 53.3102 24.2346C54.6766 22.8681 54.6632 20.6632 53.2799 19.2799L43.4925 9.49251C42.8009 8.80087 41.8909 8.45809 41.0089 8.4527C40.1269 8.4473 39.221 8.77899 38.5378 9.46222L28.8694 19.1306C27.5029 20.4971 27.5164 22.7021 28.8997 24.0854C30.2829 25.4686 32.4879 25.4821 33.8544 24.1157L36.3166 21.6534L37.3345 22.6713L37.3868 33.346C33.2144 33.9949 29.2055 35.9159 26.0084 39.1129C17.9256 47.1957 18.0062 60.3738 26.1885 68.556C34.3707 76.7382 47.5487 76.8188 55.6315 68.736C63.7143 60.6532 63.6337 47.4752 55.4515 39.2929ZM31.8606 62.8839C26.8625 57.8858 26.8132 49.8181 31.7634 44.8679C36.7136 39.9177 44.7813 39.967 49.7794 44.9651C54.7775 49.9632 54.8398 58.0439 49.8896 62.9941C44.9394 67.9443 36.8717 67.895 31.8606 62.8839Z" fill="#178BFF"/>
</g>
<defs>
<clipPath id="clip0_1564_11583">
<rect width="82" height="82" fill="white"/>
</clipPath>
</defs>
</svg>
