<svg width="80" height="80" viewBox="0 0 80 80" fill="none" xmlns="http://www.w3.org/2000/svg">
<path d="M25.3675 45.804C28.5063 48.9428 32.3821 50.8758 36.4365 51.6143L36.4632 61.2776L33.0733 61.2812C32.0991 61.2656 31.23 61.6658 30.5953 62.3005C29.9607 62.9351 29.5734 63.7913 29.5761 64.7784C29.5685 66.7136 31.1444 68.2896 33.0927 68.2949L36.4826 68.2913L36.4957 73.045C36.4984 74.0062 36.8905 74.8905 37.5287 75.5287C38.1668 76.1668 39.0511 76.5589 40.0123 76.5616C41.9345 76.5409 43.4888 74.9866 43.4965 73.0774L43.4833 68.3237L46.8733 68.346C48.8216 68.3514 50.3888 66.7842 50.3834 64.8359C50.378 62.8877 48.8022 61.3377 46.8669 61.3194L43.4639 61.31L43.4374 51.7246C47.6178 51.0607 51.6388 49.1236 54.864 45.8985C62.9852 37.7773 62.9487 24.5812 54.7825 16.415C46.6163 8.24877 33.4202 8.2123 25.299 16.3335C17.1778 24.4547 17.2143 37.6508 25.3805 45.817L25.3675 45.804ZM49.0704 22.101C54.0587 27.0893 54.081 35.168 49.1073 40.1418C44.1335 45.1155 36.0548 45.0932 31.0665 40.1049C26.0782 35.1166 26.0429 27.0248 31.0166 22.0511C35.9904 17.0774 44.0691 17.0997 49.0704 22.101Z" fill="#F45FE0"/>
</svg>
