<svg width="80" height="80" viewBox="0 0 80 80" fill="none" xmlns="http://www.w3.org/2000/svg">
<g clip-path="url(#clip0_1564_11664)">
<path d="M33.7495 38.9384C31.1951 36.3841 28.0464 34.8058 24.756 34.1958L24.7026 25.4522L25.7286 24.4262L27.9862 26.6837C29.1096 27.8072 30.9005 27.8182 32.0103 26.7083C33.1201 25.5985 33.1092 23.8077 31.9857 22.6842L24.0366 14.7351C23.4748 14.1733 22.7358 13.8949 22.0194 13.8905C21.3031 13.8862 20.5673 14.1555 20.0124 14.7105L12.1599 22.563C11.0501 23.6728 11.061 25.4636 12.1845 26.5871C13.308 27.7106 15.0989 27.7215 16.2087 26.6117L18.2084 24.6119L19.0352 25.4387L19.0776 34.1084C15.6889 34.6355 12.4329 36.1957 9.83632 38.7922C3.27162 45.3569 3.33706 56.0599 9.98253 62.7054C16.628 69.3509 27.331 69.4163 33.8957 62.8516C40.4604 56.2869 40.3949 45.5839 33.7495 38.9384ZM14.5893 58.0986C10.53 54.0392 10.4899 47.4868 14.5104 43.4663C18.5309 39.4458 25.0833 39.4859 29.1427 43.5453C33.202 47.6046 33.2527 54.1676 29.2322 58.1881C25.2117 62.2086 18.6593 62.1685 14.5893 58.0986Z" fill="#178BFF"/>
<path d="M47.0036 41.8753C49.5529 44.4246 52.7008 45.9945 55.9937 46.5944L56.0154 54.4428L53.2622 54.4457C52.471 54.433 51.7651 54.758 51.2496 55.2735C50.7342 55.789 50.4196 56.4843 50.4218 57.286C50.4156 58.8578 51.6956 60.1377 53.2779 60.1421L56.0312 60.1392L56.0418 64.0001C56.044 64.7807 56.3624 65.4989 56.8808 66.0172C57.3991 66.5355 58.1173 66.854 58.8979 66.8561C60.4591 66.8393 61.7214 65.577 61.7277 64.0263L61.717 60.1654L64.4703 60.1836C66.0527 60.188 67.3255 58.9151 67.3212 57.3327C67.3168 55.7504 66.0369 54.4916 64.4651 54.4767L61.7013 54.469L61.6798 46.6839C65.075 46.1448 68.3408 44.5715 70.9602 41.9521C77.5561 35.3562 77.5265 24.6385 70.894 18.0061C64.2616 11.3737 53.5439 11.344 46.948 17.9399C40.3522 24.5358 40.3818 35.2535 47.0142 41.8859L47.0036 41.8753ZM66.2548 22.6242C70.3062 26.6756 70.3243 33.237 66.2847 37.2766C62.2451 41.3162 55.6837 41.298 51.6323 37.2466C47.5809 33.1952 47.5522 26.6232 51.5918 22.5837C55.6314 18.5441 62.1928 18.5622 66.2548 22.6242Z" fill="#F45FE0"/>
</g>
<defs>
<clipPath id="clip0_1564_11664">
<rect width="80" height="80" fill="white"/>
</clipPath>
</defs>
</svg>
